<svg xmlns="http://www.w3.org/2000/svg" width="169.781" height="84" viewBox="0 0 169.781 84"><g transform="translate(-843.906 -274.443)"><path d="M952.237,314.807v24.786l-.324.292a2.278,2.278,0,0,0-.255-.66q-9.95-11.941-19.909-23.878a1.525,1.525,0,0,0-1.351-.549q-24.226.013-48.453.012c-6.382.006-12.063-1.89-16.693-6.407-8.9-8.683-7.689-22.511,2.525-29.675a22.939,22.939,0,0,1,13.429-4.263q57.354-.028,114.711.023c7.623.014,14,3.057,18.491,9.43,5.919,8.394,3.936,19.74-4.408,26.092a23.883,23.883,0,0,1-15,4.805q-20.782-.043-41.569-.009Z" transform="translate(-4.132 0)" fill="#001420"/><path d="M989.535,370.142a6.962,6.962,0,0,1,7.148,7.062,7.053,7.053,0,0,1-7.187,6.962,7.016,7.016,0,1,1,.039-14.024" transform="translate(-37.184 -25.723)" fill="#ee3d96"/><path d="M944.835,298.993c-.123,1.058-.178,2.107-.383,3.127a2.368,2.368,0,0,1-4.691.077,14.058,14.058,0,0,1,.022-6.413,2.246,2.246,0,0,1,2.32-1.959,2.308,2.308,0,0,1,2.335,2.063c.208,1.019.27,2.069.4,3.106m3.4-4.633a5.808,5.808,0,0,0-5.381-3.71c-2.853-.058-5.715.247-8.613.4v3.063h1.739c-.156.425-.257.68-.342.938a11.6,11.6,0,0,0,.176,8.318,6.88,6.88,0,0,0,12.372.392,10.958,10.958,0,0,0,.049-9.4" transform="translate(-24.28 -4.354)" fill="#fff"/><path d="M903.718,294.488a5.554,5.554,0,0,0,.647-.069c1.416-.335,1.713-.114,1.717,1.339,0,1.6.027,3.212-.044,4.813a7.918,7.918,0,0,1-.437,2.159,2.082,2.082,0,0,1-2.118,1.459,2.12,2.12,0,0,1-2.178-1.511,6.366,6.366,0,0,1-.391-1.8c-.1-1.94-.036-3.892-.213-5.822a19.118,19.118,0,0,0-.853-3.664.947.947,0,0,0-1.418-.692,19.214,19.214,0,0,1-2.1.665c-.515.15-.622.422-.509.964a24.326,24.326,0,0,1,.484,3.273c.12,1.782.019,3.586.216,5.357.429,3.853,3.008,6.315,6.591,6.466a6.513,6.513,0,0,0,7.15-5.857,41.7,41.7,0,0,0,.094-8.1,2.826,2.826,0,0,0-2.7-2.812,21.157,21.157,0,0,0-4.073.328c-.448.055-.736.333-.535.93.276.81.436,1.659.666,2.568" transform="translate(-13.944 -4.339)" fill="#19181c"/><path d="M923.622,303.541h-3.05c-2.592,0-2.579,0-2.481,2.612.021.534.153.772.735.765,2.382-.026,4.766-.005,7.149-.02.224,0,.589-.069.645-.207a11.829,11.829,0,0,0,1.221-3.424,49.75,49.75,0,0,0-.206-6.176,19.6,19.6,0,0,0-.361-3.02,3.848,3.848,0,0,0-3.495-3.288,18.121,18.121,0,0,0-3.819.024c-1.559.157-1.648.385-1.2,1.864a5.113,5.113,0,0,1,.212.709c.135.869.45,1.153,1.407.831,1.965-.661,2.942.057,3.035,2.123.1,2.362.139,4.728.206,7.208" transform="translate(-19.932 -4.368)" fill="#19181c"/><path d="M961.939,293.564c.725-.063,1.386-.142,2.054-.173,2.775-.128,3.672.672,3.936,3.485.011.092.018.184.021.277.045,3.92.067,7.839.153,11.758a10.791,10.791,0,0,0,.409,2.817c.544,1.826.961,1.941,2.578,1.052.544-.3.6-.58.392-1.177a10.478,10.478,0,0,1-.671-3.022c-.086-3.024.026-6.053-.057-9.077a16.548,16.548,0,0,0-.573-4.007,5.233,5.233,0,0,0-5.809-4.161c-1.708.075-3.412.238-5.12.359-1.258.09-1.308.2-1.243,1.458.053,1,.894.481,1.388.836,0,1.7.016,3.452-.01,5.207-.008.588.174.839.786.819,1.07-.037,2.141.01,3.21-.027.257-.009.655-.145.74-.335.443-1-.035-1.689-1.112-1.689h-1.072Z" transform="translate(-30.664 -4.538)" fill="#19181c"/><path d="M884.677,306.868c1.117,0,2.094-.043,3.067.015.712.041.947-.175.939-.924-.037-3.486-.007-6.972-.016-10.458a4.422,4.422,0,0,0-4.028-4.777,18.433,18.433,0,0,0-7.525.584c-1.463.355-1.5.485-1.015,1.944a5.286,5.286,0,0,1,.2.615c.156.778.575.918,1.325.747a27.77,27.77,0,0,1,4.4-.779c1.916-.123,2.594.647,2.6,2.582.008,3.084,0,6.169,0,9.254,0,.364.029.727.051,1.2" transform="translate(-8.579 -4.328)" fill="#19181c"/><path d="M994.57,304.376c.3.836.581,1.694.913,2.533.209.531.584.679,1.086.307a4.442,4.442,0,0,1,.705-.426c.584-.28.528-.636.328-1.2a10.049,10.049,0,0,1-.66-2.83c-.1-2.4.012-4.815-.077-7.219a4.482,4.482,0,0,0-6.917-3.734c-.216.127-.537.434-.5.57a4.978,4.978,0,0,0,.7,1.575c.081.113.707-.114,1.047-.265,1.78-.781,3.064-.033,3.134,1.936.075,2.157.055,4.318.066,6.477a1.359,1.359,0,0,1-.109.623,3.832,3.832,0,0,1-4.17,2.117l-.912,2.117c1.963,1.189,3.6.366,5.366-2.584" transform="translate(-39.054 -4.481)" fill="#19181c"/><path d="M1008.848,304.931c-1.3,0-2.7.006-4.1,0-.882-.005-.626.657-.642,1.126s-.145,1.025.662,1.014c1.925-.025,3.851,0,5.778-.023a.8.8,0,0,0,.63-.347,3.185,3.185,0,0,0,.361-2.387,3.88,3.88,0,0,1-.182-1.366c-.025-2.746,0-5.493-.05-8.239-.025-1.269-.3-2.513-1.652-3.044a6,6,0,0,0-4.968.317.851.851,0,0,0-.435.605c.007,1.164.731,1.64,1.816,1.247.088-.03.17-.071.256-.1,1.821-.614,2.446-.163,2.457,1.748.019,3.107.046,6.214.072,9.451" transform="translate(-43.053 -4.521)" fill="#19181c"/><path d="M1049.275,293.92a18.7,18.7,0,0,0-.4,2.493c-.064,3.271-.042,6.546-.1,9.819-.016.817.238,1.152,1.045,1.024a1.449,1.449,0,0,1,.457,0c.8.129,1.055-.168,1.042-1.006-.052-3.088-.063-6.178,0-9.267a10.545,10.545,0,0,1,.57-2.581.849.849,0,0,1,.588-.447c1.166-.2,1.551-.682,1.455-1.982h-11.96v1.947Z" transform="translate(-53.239 -4.712)" fill="#19181c"/><path d="M1020.333,293.932c-.118,2.14-.269,4.152-.327,6.167-.055,1.974.021,3.951-.027,5.925-.019.844.085,1.315,1.113,1.245,1.4-.094,1.405-.021,1.411-1.195.022-3.086-.022-6.173.1-9.254a6.3,6.3,0,0,1,.9-2.643c.163-.294.911-.258,1.42-.379v-1.852h-7.679v1.986Z" transform="translate(-46.592 -4.704)" fill="#19181c"/><path d="M982.876,307.16c.055-.119.1-.175.1-.23.012-4.814.033-9.626,0-14.44,0-.209-.431-.583-.671-.594-1.343-.058-2.689-.01-4.033-.035-.848-.014-.7.576-.707,1.085s-.089,1.017.7.97c.719-.042,1.44-.009,2.239-.009v11.23c0,2.265,0,2.265,2.368,2.021" transform="translate(-35.926 -4.682)" fill="#19181c"/><path d="M1034.234,300.151a13.583,13.583,0,0,0,1.912-.451,1.043,1.043,0,0,0,.563-.751c.047-2.094.022-4.191.027-6.284,0-.522-.178-.806-.744-.8q-2.014.024-4.028,0c-.521-.006-.707.226-.675.73.024.413,0,.827,0,1.348h2.94Z" transform="translate(-50.366 -4.682)" fill="#19181c"/><path d="M903.718,294.488c-.23-.909-.39-1.758-.666-2.568-.2-.6.086-.875.535-.93a21.157,21.157,0,0,1,4.073-.328,2.826,2.826,0,0,1,2.7,2.812,41.7,41.7,0,0,1-.094,8.1,6.513,6.513,0,0,1-7.15,5.857c-3.583-.151-6.162-2.613-6.591-6.466-.2-1.771-.1-3.575-.216-5.357a24.326,24.326,0,0,0-.484-3.273c-.113-.542-.007-.814.509-.964a19.214,19.214,0,0,0,2.1-.665.947.947,0,0,1,1.418.692,19.118,19.118,0,0,1,.853,3.664c.178,1.93.116,3.883.213,5.822a6.366,6.366,0,0,0,.391,1.8,2.12,2.12,0,0,0,2.178,1.511,2.082,2.082,0,0,0,2.118-1.459,7.918,7.918,0,0,0,.437-2.159c.071-1.6.048-3.209.044-4.813,0-1.453-.3-1.674-1.717-1.339a5.554,5.554,0,0,1-.647.069" transform="translate(-13.944 -4.339)" fill="#fff"/><path d="M923.622,303.541c-.067-2.48-.1-4.846-.206-7.208-.093-2.067-1.07-2.784-3.035-2.123-.957.322-1.271.039-1.407-.831a5.113,5.113,0,0,0-.212-.709c-.448-1.479-.359-1.707,1.2-1.864a18.121,18.121,0,0,1,3.819-.024,3.848,3.848,0,0,1,3.495,3.288,19.6,19.6,0,0,1,.361,3.02,49.75,49.75,0,0,1,.206,6.176,11.829,11.829,0,0,1-1.221,3.424c-.056.139-.421.206-.645.207-2.383.015-4.767-.006-7.149.02-.582.007-.715-.231-.735-.765-.1-2.612-.111-2.612,2.481-2.612Z" transform="translate(-19.932 -4.368)" fill="#fff"/><path d="M961.939,293.564v4.4h1.072c1.076,0,1.554.689,1.112,1.689-.085.19-.482.326-.74.335-1.069.037-2.14-.01-3.21.027-.612.021-.794-.23-.786-.819.026-1.755.01-3.511.01-5.207-.493-.355-1.334.16-1.388-.836-.066-1.261-.015-1.368,1.243-1.458,1.707-.121,3.412-.284,5.12-.359a5.233,5.233,0,0,1,5.809,4.161,16.548,16.548,0,0,1,.573,4.007c.083,3.023-.029,6.053.057,9.077a10.478,10.478,0,0,0,.671,3.022c.205.6.152.877-.392,1.177-1.617.889-2.034.774-2.578-1.052a10.791,10.791,0,0,1-.409-2.817c-.086-3.918-.108-7.838-.153-11.758,0-.092-.01-.184-.021-.277-.264-2.813-1.161-3.614-3.936-3.485-.667.031-1.329.11-2.054.173" transform="translate(-30.664 -4.538)" fill="#fff"/><path d="M884.677,306.868c-.022-.469-.049-.832-.051-1.2,0-3.085,0-6.17,0-9.254-.005-1.935-.683-2.705-2.6-2.582a27.77,27.77,0,0,0-4.4.779c-.749.171-1.169.031-1.325-.747a5.286,5.286,0,0,0-.2-.615c-.481-1.459-.448-1.589,1.015-1.944a18.433,18.433,0,0,1,7.525-.584,4.422,4.422,0,0,1,4.028,4.777c.01,3.486-.021,6.972.016,10.458.008.749-.227.965-.939.922-.972-.056-1.95-.013-3.067-.013" transform="translate(-8.579 -4.328)" fill="#fff"/><path d="M994.57,304.376c-1.77,2.95-3.4,3.773-5.366,2.584l.912-2.117a3.832,3.832,0,0,0,4.17-2.117,1.359,1.359,0,0,0,.109-.623c-.011-2.159.01-4.32-.066-6.477-.07-1.969-1.354-2.717-3.134-1.936-.34.151-.967.378-1.047.265a4.978,4.978,0,0,1-.7-1.575c-.038-.137.283-.444.5-.57a4.482,4.482,0,0,1,6.917,3.734c.089,2.4-.023,4.815.077,7.219a10.049,10.049,0,0,0,.66,2.83c.2.563.256.918-.328,1.2a4.442,4.442,0,0,0-.705.426c-.5.371-.876.224-1.086-.307-.332-.839-.614-1.7-.913-2.533" transform="translate(-39.054 -4.481)" fill="#fff"/><path d="M1008.848,304.931c-.026-3.237-.053-6.344-.072-9.451-.011-1.911-.636-2.361-2.457-1.748-.086.03-.168.07-.256.1-1.084.393-1.809-.083-1.816-1.247a.851.851,0,0,1,.435-.605,6,6,0,0,1,4.968-.317c1.349.531,1.627,1.775,1.652,3.044.053,2.745.026,5.492.05,8.239a3.88,3.88,0,0,0,.182,1.366,3.185,3.185,0,0,1-.361,2.387.8.8,0,0,1-.63.347c-1.927.027-3.853,0-5.778.023-.807.011-.68-.545-.662-1.014s-.239-1.131.642-1.126c1.4.008,2.8,0,4.1,0" transform="translate(-43.053 -4.521)" fill="#fff"/><path d="M1049.275,293.92h-7.3v-1.947h11.96c.1,1.3-.289,1.779-1.455,1.982a.849.849,0,0,0-.588.447,10.545,10.545,0,0,0-.57,2.581c-.067,3.089-.056,6.179,0,9.267.014.839-.246,1.135-1.042,1.006a1.449,1.449,0,0,0-.457,0c-.807.128-1.061-.208-1.045-1.024.059-3.273.037-6.547.1-9.819a18.7,18.7,0,0,1,.4-2.493" transform="translate(-53.239 -4.712)" fill="#fff"/><path d="M1020.333,293.932h-3.083v-1.986h7.679V293.8c-.51.121-1.258.085-1.42.379a6.3,6.3,0,0,0-.9,2.643c-.126,3.081-.082,6.168-.1,9.254-.006,1.174-.01,1.1-1.411,1.195-1.028.07-1.132-.4-1.113-1.245.048-1.975-.027-3.952.027-5.925.057-2.015.209-4.027.327-6.167" transform="translate(-46.592 -4.704)" fill="#fff"/><path d="M982.876,307.16c-2.368.243-2.368.243-2.368-2.021v-11.23c-.8,0-1.52-.033-2.239.009-.786.047-.71-.469-.7-.97s-.141-1.1.707-1.085c1.344.025,2.691-.023,4.033.035.241.011.671.386.671.594.029,4.813.008,9.626,0,14.44,0,.055-.048.11-.1.23" transform="translate(-35.926 -4.682)" fill="#fff"/><path d="M1034.234,300.151v-6.209h-2.94c0-.521.021-.934,0-1.348-.032-.5.154-.736.675-.73q2.014.024,4.028,0c.566-.007.747.277.744.8-.006,2.094.019,4.19-.027,6.284a1.043,1.043,0,0,1-.563.751,13.583,13.583,0,0,1-1.912.451" transform="translate(-50.366 -4.682)" fill="#fff"/><rect width="169.778" height="84" transform="translate(843.907 274.444)" fill="none"/></g></svg>