<?xml version="1.0" encoding="utf-8"?>
<!-- Generator: Adobe Illustrator 24.1.3, SVG Export Plug-In . SVG Version: 6.00 Build 0)  -->
<svg version="1.1" id="Layer_1" xmlns="http://www.w3.org/2000/svg" xmlns:xlink="http://www.w3.org/1999/xlink" x="0px" y="0px"
	 width="156px" height="46px" viewBox="0 0 156 46" style="enable-background:new 0 0 156 46;" xml:space="preserve">
<g>
	<g>
		<g>
			<g>
				<g>
					<path d="M69.1,5.1l0.4-1h-3.9l-0.1,0.5c-0.9,3.3-2.4,7.5-4,11.9L56.2,5.1h0l-0.4-0.9c-0.1-0.3-0.4-0.5-0.6-0.5c0,0,0,0,0,0
						c-0.3,0-0.5,0.2-0.6,0.5L54.2,5h0l-4.6,11.4L45.3,4.2H41L48.1,23c0,0,0,0,0,0l0.3,0.9c0.1,0.3,0.3,0.5,0.6,0.5
						c0.2,0,0.5-0.1,0.6-0.4l5.2-12.4L60.7,24c0.1,0.3,0.3,0.4,0.6,0.4c0,0,0,0,0,0c0.3,0,0.5-0.2,0.6-0.4c0,0,0.1-0.3,0.3-0.9
						c0,0,0,0,0,0C62.2,23,67.7,8.5,69.1,5.1z"/>
				</g>
			</g>
		</g>
		<g>
			<g>
				<g>
					<path d="M32.1,20.9c-0.1-1.3-0.1-3-0.1-5.8v0c1.5,0,5.2,0.1,6.7,0.1l0.7,0v-3.4l-0.7,0c-1.8,0.1-5.3,0.1-6.8,0.1
						c0-2.2,0-3.5,0.1-4.8c1.9,0,5.4,0.1,7.3,0.2l0.7,0V4.2H27.8l0,0.7C28,7.1,28,9.3,28,12.4v3.5c0,3.1,0,5.1-0.2,7.3l-0.1,0.7
						h12.6v-3.4l-0.8,0.1C37.4,20.8,34.1,20.9,32.1,20.9z"/>
				</g>
			</g>
		</g>
		<g>
			<g>
				<g>
					<path d="M22.6,4.9c0.3,2.6,0.3,4.5,0.3,7.3v4.3l-12.5-12c0,0,0,0,0,0L9.6,3.9C9.4,3.7,9.2,3.6,8.9,3.7C8.7,3.8,8.5,4,8.5,4.4
						l0,9.8c0,3.9,0,6.3-0.3,9l-0.1,0.8h4.1l-0.1-0.8c-0.3-2.7-0.3-4.7-0.3-8.1l0-3.5l13.2,12.6c0.1,0.1,0.3,0.2,0.5,0.2
						c0.1,0,0.1,0,0.2,0c0.2-0.1,0.4-0.3,0.4-0.6V21l0,0v-8.5c0-2.7,0.1-5.2,0.3-7.6l0.1-0.7l-4.1,0L22.6,4.9z"/>
				</g>
			</g>
		</g>
		<g>
			<g>
				<g>
					<path d="M136.2,13l11.5-8.9h-5.2l-9.2,7.6v-0.3c0-2.2,0.1-4.3,0.2-6.6l0.1-0.7H129l0,0.7c0.1,2.2,0.2,4.4,0.2,7.4l0,4.3
						c0,2.6,0,4.2-0.2,6.2l-0.2,1.1h4.7l-0.1-0.7c-0.2-2.4-0.3-4-0.3-6.6l0-1.1l7.8,7.8c0.5,0.5,1,0.8,1.8,0.7h5L136.2,13z"/>
				</g>
			</g>
		</g>
		<g>
			<g>
				<g>
					<path d="M121.1,15.5c3-0.8,4.7-2.9,4.7-5.9c0-2-0.9-5.5-7.2-5.5c-0.6,0-1.5,0-2.4,0c-0.8,0-1.6,0-2.1,0h-1.8l0,0.7
						c0.1,2.2,0.2,4.4,0.2,7.5v2c-1.4,0.2-2.9,0.4-4.4,0.6c-0.2,0-0.3,0-0.5,0.1c-0.5-1.1-1-2.3-1.6-3.5l-3.1-6.5h0l-0.5-1
						c-0.1-0.3-0.3-0.4-0.6-0.4c-0.3,0-0.5,0.1-0.6,0.4l-0.5,1h0l-6.5,14.1c-0.7,1.6-1.4,3-1.8,3.7l-0.5,1h4l0.2-0.5
						c0.2-0.6,0.4-1.3,0.7-2c0,0,0.4-1.2,1.5-1.8c0.8-0.4,1.9-0.7,3-0.9c0.7-0.1,2.2-0.3,3.3-0.4l2.3,5.6h4.8l-0.5-1
						c-0.9-1.9-1.7-3.5-2.4-5.1c1.2-0.1,2.4-0.2,3.6-0.4c0,2.2-0.1,3.9-0.2,5.7l-0.1,0.7h4.5l-0.1-0.7c-0.2-2.2-0.3-4.1-0.3-6.3
						c0.3-0.1,0.6-0.1,0.9-0.2l5.1,6.4c0.5,0.7,1.1,0.8,1.9,0.8h4.3l-1.1-1.1C125.4,20.5,123.4,18.2,121.1,15.5z M100.1,16
						c-0.3,0-0.6,0.1-0.9,0.1l2.2-5.4l1.8,4.8C102.1,15.7,101.1,15.9,100.1,16z M119.1,13.3c-0.6,0.1-1.3,0.3-2.1,0.4
						c-0.3,0-0.5,0-0.6,0l0-0.4c0-2.2,0-4.7,0.1-6.6c0.4,0,1-0.1,1.6-0.1c1.7,0,3.8,0.5,3.8,3c0,0.6,0,1-0.1,1.5
						C121.2,12.3,120.2,12.9,119.1,13.3z"/>
				</g>
			</g>
		</g>
		<g>
			<g>
				<g>
					<path d="M90.3,16.9L88.7,5.7l0,0l-0.2-1.4c-0.1-0.4-0.3-0.6-0.5-0.6c-0.3,0-0.5,0.1-0.7,0.4c-0.2,0.3-7.8,13.7-7.8,13.7L72,5
						l-0.5-0.9c-0.1-0.3-0.4-0.4-0.7-0.4c-0.3,0-0.4,0.2-0.5,0.6l-1.8,11.5c-0.5,3-0.8,5.1-1.3,7.3L67,23.9h3.9l0-0.6
						c0.1-1.9,0.3-3.9,0.7-6.9l0.5-3.7l6.1,10.8c0,0,0,0,0,0l0.3,0.6c0.1,0.2,0.3,0.3,0.5,0.3c0,0,0,0,0,0c0.2,0,0.4-0.1,0.6-0.3
						l0.3-0.6c0,0,5.9-10.6,5.9-10.6l0.6,5.1c0.2,1.8,0.4,3.6,0.5,5.3l0,0.7h4.5l-0.1-0.8C91,21,90.6,18.8,90.3,16.9z"/>
				</g>
			</g>
		</g>
	</g>
	<g>
		<path d="M8.2,42.4v-9.3H10l3.4,6.1h0v-6.1h1.8v9.3h-1.8L10,36.3h0v6.1H8.2z"/>
		<path d="M24,42.4l-0.5-1.5H20l-0.5,1.5h-1.8l3.4-9.3h1.5l3.3,9.3H24z M21.7,35.7l-1.3,3.6H23L21.7,35.7L21.7,35.7z"/>
		<path d="M29.1,42.4v-7.6h-2.7v-1.7h7.2v1.7h-2.7v7.6H29.1z"/>
		<path d="M40.7,42.4l-0.5-1.5h-3.5l-0.5,1.5h-1.8l3.4-9.3h1.5l3.3,9.3H40.7z M38.4,35.7l-1.3,3.6h2.5L38.4,35.7L38.4,35.7z"/>
		<path d="M45,42.4v-9.3h1.8l2.7,6h0l2.7-6h1.9v9.3h-1.7v-5.7h0l-2.6,5.7h-0.3l-2.6-5.7h0v5.7H45z"/>
	</g>
</g>
</svg>
